<svg xmlns="http://www.w3.org/2000/svg" version="1.1" xmlns:xlink="http://www.w3.org/1999/xlink" width="32" height="32"><svg width="32" height="32" viewBox="0 0 32 32" fill="none" xmlns="http://www.w3.org/2000/svg">
<circle cx="16" cy="16" r="16" fill="black"></circle>
<path d="M21.5937 8.40627C21.7343 8.5167 21.7575 8.67473 21.7812 8.84377C21.784 8.91049 21.7853 8.97729 21.7854 9.04407C21.7856 9.08397 21.7857 9.12388 21.7859 9.16499C21.7859 9.20905 21.7859 9.25311 21.7858 9.29716C21.786 9.34415 21.7861 9.39113 21.7862 9.43811C21.7865 9.56713 21.7866 9.69614 21.7867 9.82516C21.7868 9.96436 21.7871 10.1036 21.7874 10.2427C21.788 10.5789 21.7883 10.915 21.7886 11.2511C21.7888 11.4096 21.7889 11.568 21.7891 11.7264C21.7896 12.2533 21.7901 12.7802 21.7903 13.3071C21.7904 13.4437 21.7904 13.5804 21.7905 13.7171C21.7905 13.751 21.7905 13.785 21.7905 13.82C21.7908 14.3699 21.7916 14.9198 21.7926 15.4697C21.7936 16.0348 21.7942 16.5998 21.7943 17.1648C21.7943 17.4818 21.7946 17.7989 21.7954 18.116C21.7961 18.3861 21.7963 18.6561 21.796 18.9262C21.7959 19.0639 21.796 19.2016 21.7966 19.3392C21.7971 19.4656 21.7971 19.5919 21.7966 19.7183C21.7965 19.7636 21.7967 19.809 21.797 19.8544C21.8002 20.2662 21.7355 20.6777 21.5391 21.0449C21.5282 21.0656 21.5174 21.0864 21.5062 21.1077C21.2806 21.5242 20.8916 21.8311 20.4375 21.9688C19.6048 22.2053 18.66 22.1518 17.8809 21.7578C17.4502 21.5077 17.1355 21.1211 17.0009 20.6419C16.8912 20.1714 16.9062 19.6973 17.166 19.2775C17.4682 18.8431 17.9737 18.6935 18.4687 18.5938C18.8081 18.5351 19.1506 18.5276 19.4941 18.5176C20.0858 18.5151 20.0858 18.5151 20.5937 18.25C20.7335 18.048 20.7547 17.8427 20.7544 17.6018C20.7545 17.5777 20.7546 17.5535 20.7547 17.5286C20.7549 17.4479 20.755 17.3671 20.755 17.2863C20.7552 17.2284 20.7553 17.1704 20.7555 17.1125C20.7559 16.9551 20.7561 16.7978 20.7563 16.6404C20.7563 16.5421 20.7565 16.4439 20.7566 16.3456C20.757 16.0381 20.7573 15.7307 20.7575 15.4232C20.7576 15.0682 20.7582 14.7131 20.7591 14.3581C20.7597 14.0837 20.76 13.8093 20.7601 13.5348C20.7601 13.3709 20.7603 13.207 20.7609 13.0431C20.7614 12.889 20.7614 12.7349 20.7612 12.5808C20.7612 12.5242 20.7613 12.4676 20.7616 12.411C20.762 12.3338 20.7618 12.2567 20.7615 12.1795C20.7617 12.1571 20.762 12.1346 20.7622 12.1115C20.7609 11.9766 20.7443 11.8857 20.6562 11.7813C20.4343 11.7557 20.2282 11.8049 20.0121 11.8537C19.9589 11.8653 19.9589 11.8653 19.9047 11.8771C19.7873 11.9028 19.67 11.929 19.5527 11.9551C19.4696 11.9734 19.3864 11.9917 19.3033 12.0099C19.1041 12.0537 18.9049 12.0977 18.7058 12.1419C18.4774 12.1926 18.2489 12.2429 18.0204 12.2933C17.9064 12.3184 17.7924 12.3435 17.6784 12.3686C17.6559 12.3736 17.6334 12.3785 17.6103 12.3836C17.4519 12.4186 17.2935 12.4535 17.1351 12.4886C16.6554 12.5946 16.1755 12.7001 15.6954 12.804C15.6121 12.822 15.5289 12.84 15.4456 12.8581C15.3934 12.8694 15.3413 12.8807 15.2891 12.892C15.2644 12.8974 15.2396 12.9028 15.2141 12.9083C15.0951 12.9341 14.976 12.9598 14.8569 12.9854C14.7291 13.0129 14.6013 13.0407 14.4735 13.0685C14.4194 13.08 14.4194 13.08 14.3642 13.0918C14.1098 13.1447 14.1098 13.1447 13.875 13.25C13.7937 13.4197 13.8036 13.5939 13.8042 13.7779C13.8041 13.8122 13.8039 13.8466 13.8038 13.882C13.8034 13.9971 13.8035 14.1122 13.8035 14.2274C13.8033 14.3099 13.8031 14.3925 13.8029 14.475C13.8024 14.6528 13.8021 14.8307 13.802 15.0085C13.8018 15.266 13.8013 15.5235 13.8006 15.781C13.7994 16.1993 13.7986 16.6176 13.7979 17.036C13.7978 17.061 13.7978 17.086 13.7977 17.1118C13.7974 17.2894 13.7972 17.467 13.7969 17.6445C13.7965 17.8471 13.7962 18.0496 13.7959 18.2521C13.7958 18.2896 13.7958 18.2896 13.7958 18.3277C13.7951 18.7443 13.7941 19.1608 13.793 19.5774C13.7923 19.8341 13.7919 20.0907 13.7917 20.3474C13.7916 20.5235 13.7912 20.6996 13.7907 20.8757C13.7904 20.9771 13.7902 21.0785 13.7903 21.18C13.7903 21.2903 13.79 21.4006 13.7895 21.5109C13.7897 21.5583 13.7897 21.5583 13.7898 21.6067C13.7862 22.1685 13.6186 22.6208 13.2344 23.0332C12.6331 23.6146 11.7961 23.7019 11.0006 23.694C10.4448 23.6819 9.88299 23.5507 9.46875 23.1563C9.44017 23.1296 9.44017 23.1296 9.41101 23.1023C9.05643 22.736 8.94032 22.2471 8.92773 21.752C8.94241 21.3621 9.0703 20.9997 9.34302 20.7127C9.79943 20.3056 10.4048 20.2036 10.9945 20.1741C11.028 20.1724 11.028 20.1724 11.0621 20.1706C11.155 20.1659 11.248 20.1612 11.341 20.1571C12.015 20.1349 12.015 20.1349 12.5879 19.8223C12.7469 19.5816 12.7636 19.3467 12.7618 19.0639C12.762 19.0271 12.7621 18.9903 12.7623 18.9524C12.7626 18.851 12.7624 18.7495 12.7621 18.6481C12.7619 18.5384 12.7623 18.4288 12.7625 18.3191C12.7629 18.1293 12.763 17.9395 12.7628 17.7496C12.7626 17.4748 12.763 17.2001 12.7636 16.9253C12.7645 16.479 12.765 16.0328 12.7653 15.5865C12.7653 15.5599 12.7653 15.5332 12.7653 15.5057C12.7654 15.3163 12.7655 15.1269 12.7656 14.9375C12.7657 14.7212 12.7658 14.5048 12.766 14.2885C12.766 14.2485 12.766 14.2485 12.766 14.2077C12.7663 13.7631 12.7669 13.3185 12.7678 12.8738C12.7684 12.5998 12.7686 12.3258 12.7684 12.0518C12.7682 11.864 12.7684 11.6762 12.7689 11.4884C12.7691 11.3802 12.7692 11.2719 12.7689 11.1636C12.7687 11.0461 12.769 10.9286 12.7694 10.8111C12.7691 10.7601 12.7691 10.7601 12.7688 10.7081C12.7703 10.5005 12.7788 10.2753 12.9151 10.1067C13.0238 10.0074 13.134 9.96957 13.2753 9.93798C13.2966 9.93308 13.318 9.92819 13.34 9.92315C13.414 9.90644 13.4882 9.89067 13.5625 9.87502C13.5901 9.86908 13.6178 9.86313 13.6462 9.85701C13.8789 9.80703 14.112 9.75917 14.3452 9.71144C14.4229 9.69545 14.5007 9.67945 14.5784 9.66343C14.7659 9.62483 14.9534 9.58631 15.1409 9.54785C15.5157 9.47096 15.8905 9.39387 16.2653 9.3168C16.3562 9.29809 16.4472 9.27939 16.5382 9.2607C17.1468 9.13562 17.7551 9.00962 18.3633 8.88249C18.5122 8.85136 18.6612 8.82027 18.8101 8.78922C18.8307 8.78491 18.8514 8.78061 18.8727 8.77617C18.9754 8.75476 19.0781 8.73335 19.1808 8.71194C19.3802 8.67035 19.5797 8.62864 19.7791 8.58671C19.9658 8.54745 20.1525 8.50845 20.3393 8.46965C20.4075 8.45543 20.4756 8.44111 20.5438 8.42668C20.6367 8.40702 20.7298 8.3877 20.8228 8.36847C20.8629 8.35986 20.8629 8.35986 20.9037 8.35108C21.1481 8.30126 21.3747 8.26548 21.5937 8.40627Z" fill="white"></path>
</svg><style>@media (prefers-color-scheme: light) { :root { filter: none; } }
@media (prefers-color-scheme: dark) { :root { filter: invert(100%); } }
</style></svg>