<svg xmlns="http://www.w3.org/2000/svg" version="1.1" xmlns:xlink="http://www.w3.org/1999/xlink" width="32" height="32"><svg width="32" height="32" viewBox="0 0 32 32" fill="none" xmlns="http://www.w3.org/2000/svg">
<circle cx="16" cy="16" r="16" fill="black"></circle>
<path d="M22.75 8.96871C22.75 8.84454 22.7226 8.7219 22.6698 8.60953C22.617 8.49716 22.54 8.39784 22.4444 8.31865C22.3487 8.23945 22.2368 8.18234 22.1165 8.15139C21.9963 8.12044 21.8707 8.11641 21.7487 8.13959L13.309 9.74834C13.1161 9.78498 12.9421 9.88771 12.8168 10.0388C12.6916 10.19 12.6229 10.38 12.6227 10.5763V13.3888L12.625 13.4496V17.9462C12.6251 18.2082 12.5339 18.462 12.3669 18.6639C12.1999 18.8658 11.9677 19.0031 11.7103 19.0521L11.0578 19.1758C10.4781 19.2864 9.96604 19.6227 9.63428 20.1108C9.30252 20.5989 9.17824 21.1988 9.28878 21.7785C9.39933 22.3583 9.73564 22.8703 10.2237 23.2021C10.7118 23.5339 11.3117 23.6581 11.8915 23.5476L12.5698 23.4182C13.5823 23.2258 14.3136 22.3416 14.3136 21.3111V19.5752L14.3125 19.5268V14.0875L21.0625 12.8016V16.3408C21.0624 16.6026 20.971 16.8562 20.804 17.0579C20.6371 17.2595 20.405 17.3966 20.1478 17.4456L19.4908 17.5705C18.911 17.6809 18.3987 18.0171 18.0667 18.5052C17.7347 18.9933 17.6103 19.5933 17.7207 20.1731C17.8311 20.753 18.1673 21.2653 18.6554 21.5973C19.1435 21.9292 19.7435 22.0537 20.3233 21.9433L20.6901 21.8725C21.2698 21.7626 21.7929 21.4537 22.169 20.9991C22.5451 20.5445 22.7506 19.9728 22.75 19.3828V8.96871Z" fill="white"></path>
</svg><style>@media (prefers-color-scheme: light) { :root { filter: none; } }
@media (prefers-color-scheme: dark) { :root { filter: invert(100%); } }
</style></svg>